<?xml version="1.0" encoding="utf-8"?>
<!-- Generator: Adobe Illustrator 17.1.0, SVG Export Plug-In . SVG Version: 6.00 Build 0)  -->
<!DOCTYPE svg PUBLIC "-//W3C//DTD SVG 1.1//EN" "http://www.w3.org/Graphics/SVG/1.1/DTD/svg11.dtd">
<svg version="1.1" id="Layer_1" xmlns="http://www.w3.org/2000/svg" xmlns:xlink="http://www.w3.org/1999/xlink" x="0px" y="0px"
	 viewBox="0 0 375 627" enable-background="new 0 0 375 627" xml:space="preserve">
<rect x="-0.5" y="0.5" fill="#333333" stroke="#000000" stroke-linecap="round" stroke-miterlimit="10" width="376" height="626"/>
<g>

		<path opacity="0.49" fill="#F7931E" stroke="#000000" stroke-linecap="round" stroke-miterlimit="10" enable-background="new    " d="
		M201.5,512h156c4,0,7.3,3.3,7.3,7.3v92.5c0,4-3.3,7.3-7.3,7.3h-156c-4,0-7.3-3.3-7.3-7.3v-92.5C194.3,515.3,197.5,512,201.5,512z"
		/>
	<text transform="matrix(1 0 0 1 226.4864 575.9277)" fill="#FFFFFF" font-family="'LetoSans'" font-size="26.2966">MOD D</text>
</g>
<g>

		<path opacity="0.48" fill="#00FF00" stroke="#000000" stroke-linecap="round" stroke-miterlimit="10" enable-background="new    " d="
		M17.2,512h150.5c4,0,7.3,3.3,7.3,7.3v92.5c0,4-3.3,7.3-7.3,7.3H17.2c-4,0-7.3-3.3-7.3-7.3v-92.5C10,515.3,13.2,512,17.2,512z"/>
	<text transform="matrix(1 0 0 1 51.8853 575.0215)" fill="#FFFFFF" font-family="'LetoSans'" font-size="26.2966">MOD C</text>
</g>
<g>

		<path opacity="0.48" fill="#FFFF00" stroke="#000000" stroke-linecap="round" stroke-miterlimit="10" enable-background="new    " d="
		M16.5,392h153.3c4.1,0,7.4,3.3,7.4,7.4v94.2c0,4.1-3.3,7.4-7.4,7.4H16.5c-4.1,0-7.4-3.3-7.4-7.4v-94.2C9.1,395.3,12.5,392,16.5,392
		z"/>
	<text transform="matrix(1 0 0 1 51.8262 456.1992)" fill="#FFFFFF" font-family="'LetoSans'" font-size="26.7881">MOD A</text>
</g>
<g>

		<path opacity="0.49" fill="#00FFFF" stroke="#000000" stroke-linecap="round" stroke-miterlimit="10" enable-background="new    " d="
		M200.1,392h158.9c4.1,0,7.4,3.3,7.4,7.4v94.2c0,4.1-3.3,7.4-7.4,7.4H200.1c-4.1,0-7.4-3.3-7.4-7.4v-94.2
		C192.7,395.3,196,392,200.1,392z"/>
	<text transform="matrix(1 0 0 1 225.4961 457.123)" fill="#FFFFFF" font-family="'LetoSans'" font-size="26.7881">MOD B</text>
</g>
<g>
	<g>
		<g>
			<line fill="none" stroke="#000000" stroke-width="9" stroke-miterlimit="10" x1="33.3" y1="68.9" x2="33.3" y2="145.5"/>
			<g>
				<polygon points="20.2,72.3 33.3,49.6 46.3,72.3 				"/>
			</g>
			<g>
				<polygon points="20.2,142.2 33.3,164.8 46.3,142.2 				"/>
			</g>
		</g>
	</g>
	<text id="pitch" transform="matrix(1 0 0 1 9.1406 113.8696)" fill="#FFFFFF" font-family="'LetoSans'" font-size="20.8092">000</text>
</g>
<g>
	<g>
		<g>
			<line fill="none" stroke="#000000" stroke-width="9" stroke-miterlimit="10" x1="160.5" y1="46.7" x2="73.2" y2="46.7"/>
			<g>
				<polygon points="156.8,31.8 181.9,46.2 156.8,60.6 				"/>
			</g>
			<g>
				<polygon points="76.8,31.8 51.8,46.2 76.8,60.6 				"/>
			</g>
		</g>
	</g>
	<text id="roll" transform="matrix(1 0 0 1 92.0103 53.5674)" fill="#FFFFFF" font-family="'LetoSans'" font-size="22.9887">000</text>
</g>
<g>
	<g>
		<g>

				<line fill="none" stroke="#000000" stroke-width="44" stroke-linecap="round" stroke-miterlimit="10" x1="235" y1="241" x2="235" y2="57.2"/>
			<g>
				<polygon points="269.5,66.7 235.4,7.6 201.3,66.7 				"/>
			</g>
		</g>
	</g>

		<text transform="matrix(4.489659e-11 -1 1 4.489659e-11 241.4567 229.0095)" fill="#FFFFFF" font-family="'LetoSans'" font-size="19.5964">TOP = NORTH</text>
	<text id="heading" transform="matrix(1 0 0 1 214.4274 59.9018)" fill="#FFFFFF" font-family="'LetoSans'" font-size="16.8935">000</text>
</g>
<text id="MOD" transform="matrix(1 0 0 1 299 75)" fill="none" stroke="#FFFFFF" stroke-width="3" stroke-miterlimit="10" font-family="'LetoSans-Bold'" font-size="72">-</text>
<text transform="matrix(1 0 0 1 32 302)" fill="#FFFFFF" font-family="'LetoSans'" font-size="17">LAT</text>
<text transform="matrix(1 0 0 1 32.0001 323.5001)" fill="#FFFFFF" font-family="'LetoSans'" font-size="17">LON</text>
<text transform="matrix(1 0 0 1 32.0001 345)" fill="#FFFFFF" font-family="'LetoSans'" font-size="17">ALT</text>
<text id="lat_anim" transform="matrix(1 0 0 1 83.2 302.0001)" fill="#FFFFFF" font-family="'LetoSans'" font-size="17">XX.XX</text>
<text id="lon_anim" transform="matrix(1 0 0 1 83.2001 323.5002)" fill="#FFFFFF" font-family="'LetoSans'" font-size="17">XX.XX</text>
<text id="alt_anim" transform="matrix(1 0 0 1 83.2001 345.0001)" fill="#FFFFFF" font-family="'LetoSans'" font-size="17">XXXX</text>
<text transform="matrix(1 0 0 1 316.0001 345.0001)" fill="#FFFFFF" font-family="'LetoSans'" font-size="17">m/s</text>
<text id="speed_anim" transform="matrix(1 0 0 1 268.0001 345.0001)" fill="#FFFFFF" font-family="'LetoSans'" font-size="17">XXX</text>
<text id="alt_prec_anim" transform="matrix(1 0 0 1 142.2001 345.0001)" fill="#FFFFFF" font-family="'LetoSans'" font-size="17">XXXX</text>
<circle id="pos_prec_anim" fill="#00FFFF" stroke="#006699" stroke-width="3" stroke-miterlimit="10" cx="130.8" cy="164.8" r="40"/>
<g>
	<g>
		<line fill="none" stroke="#006699" stroke-width="3" stroke-miterlimit="10" x1="93.5" y1="225" x2="167.8" y2="225"/>
		<g>
			<rect x="92" y="215.2" fill="#006699" width="3" height="19.5"/>
		</g>
		<g>
			<rect x="166.3" y="215.2" fill="#006699" width="3" height="19.5"/>
		</g>
	</g>
</g>
<text transform="matrix(1 0 0 1 110 241)" fill="#006699" font-family="'LetoSans'" font-size="17">20m</text>
</svg>
