<?xml version="1.0" encoding="utf-8"?>
<!-- Generator: Adobe Illustrator 17.1.0, SVG Export Plug-In . SVG Version: 6.00 Build 0)  -->
<!DOCTYPE svg PUBLIC "-//W3C//DTD SVG 1.1//EN" "http://www.w3.org/Graphics/SVG/1.1/DTD/svg11.dtd">
<svg version="1.1" id="Layer_1" xmlns="http://www.w3.org/2000/svg" xmlns:xlink="http://www.w3.org/1999/xlink" x="0px" y="0px"
	 viewBox="0 0 375 627" enable-background="new 0 0 375 627" xml:space="preserve">
<rect x="-0.5" y="0.5" fill="#333333" stroke="#000000" stroke-linecap="round" stroke-miterlimit="10" width="376" height="626"/>
<g>
	<path opacity="0.49" fill="#F7931E" stroke="#000000" stroke-linecap="round" stroke-miterlimit="10" d="M193.5,506.5h172
		c4.4,0,8,3.6,8,8v102c0,4.4-3.6,8-8,8h-172c-4.4,0-8-3.6-8-8v-102C185.5,510.1,189.1,506.5,193.5,506.5z"/>
	<text transform="matrix(1 0 0 1 221.0366 577)" fill="#FFFFFF" font-family="'LetoSans'" font-size="29">MOD D</text>
</g>
<g>
	
		<path opacity="0.48" fill="#00FF00" stroke="#000000" stroke-linecap="round" stroke-miterlimit="10" enable-background="new    " d="
		M9.5,506.5h166c4.4,0,8,3.6,8,8v102c0,4.4-3.6,8-8,8H9.5c-4.4,0-8-3.6-8-8v-102C1.5,510.1,5.1,506.5,9.5,506.5z"/>
	<text transform="matrix(1 0 0 1 47.71 576)" fill="#FFFFFF" font-family="'LetoSans'" font-size="29">MOD C</text>
</g>
<g>
	
		<path opacity="0.48" fill="#FFFF00" stroke="#000000" stroke-linecap="round" stroke-miterlimit="10" enable-background="new    " d="
		M10.2,387.5h166c4.4,0,8,3.6,8,8v102c0,4.4-3.6,8-8,8h-166c-4.4,0-8-3.6-8-8v-102C2.2,391.1,5.8,387.5,10.2,387.5z"/>
	<text transform="matrix(1 0 0 1 48.41 457)" fill="#FFFFFF" font-family="'LetoSans'" font-size="29">MOD A</text>
</g>
<g>
	<path opacity="0.49" fill="#00FFFF" stroke="#000000" stroke-linecap="round" stroke-miterlimit="10" d="M193.5,387.5h172
		c4.4,0,8,3.6,8,8v102c0,4.4-3.6,8-8,8h-172c-4.4,0-8-3.6-8-8v-102C185.5,391.1,189.1,387.5,193.5,387.5z"/>
	<text transform="matrix(1 0 0 1 221.0366 458)" fill="#FFFFFF" font-family="'LetoSans'" font-size="29">MOD B</text>
</g>
<g>
	<g>
		<g>
			<line fill="none" stroke="#000000" stroke-width="9" stroke-miterlimit="10" x1="78.5" y1="204" x2="78.5" y2="296"/>
			<g>
				<polygon points="62.8,208 78.5,180.8 94.2,208 				"/>
			</g>
			<g>
				<polygon points="62.8,292 78.5,319.2 94.2,292 				"/>
			</g>
		</g>
	</g>
	<text id="pitch" transform="matrix(1 0 0 1 49.5 258)" fill="#FFFFFF" font-family="'LetoSans'" font-size="25">000</text>
</g>
<g>
	<g>
		<g>
			<line fill="none" stroke="#000000" stroke-width="9" stroke-miterlimit="10" x1="341" y1="250.5" x2="246" y2="250.5"/>
			<g>
				<polygon points="337,234.3 364.2,250 337,265.7 				"/>
			</g>
			<g>
				<polygon points="250,234.3 222.8,250 250,265.7 				"/>
			</g>
		</g>
	</g>
	<text id="roll" transform="matrix(1 0 0 1 266.5 258)" fill="#FFFFFF" font-family="'LetoSans'" font-size="25">000</text>
</g>
<g>
	<g>
		<g>
			
				<line fill="none" stroke="#000000" stroke-width="44" stroke-linecap="round" stroke-miterlimit="10" x1="181" y1="353" x2="181" y2="81"/>
			<g>
				<polygon points="232,95 181.5,7.6 131,95 				"/>
			</g>
		</g>
	</g>
	<text transform="matrix(4.489659e-11 -1 1 4.489659e-11 190.5 335.2568)" fill="#FFFFFF" font-family="'LetoSans'" font-size="29">TOP = NORTH</text>
	<text id="heading" transform="matrix(1 0 0 1 150.5 85)" fill="#FFFFFF" font-family="'LetoSans'" font-size="25">000</text>
</g>
<text id="MOD" transform="matrix(1 0 0 1 299 75)" fill="none" stroke="#FFFFFF" stroke-width="3" stroke-miterlimit="10" font-family="'LetoSans-Bold'" font-size="72">-</text>
</svg>
